<?xml version="1.0" standalone="no"?>
<!DOCTYPE svg PUBLIC "-//W3C//DTD SVG 20010904//EN"
 "http://www.w3.org/TR/2001/REC-SVG-20010904/DTD/svg10.dtd">
<svg version="1.0" xmlns="http://www.w3.org/2000/svg"
 width="342.000000pt" height="320.000000pt" viewBox="0 0 342.000000 320.000000"
 preserveAspectRatio="xMidYMid meet">

<g transform="translate(0.000000,320.000000) scale(0.100000,-0.100000)"
fill="#000000" stroke="none">
<path d="M879 3171 c-138 -12 -241 -87 -291 -210 l-23 -56 0 -1185 0 -1185 24
-60 c33 -83 108 -155 189 -185 l62 -23 0 -41 c1 -112 50 -183 137 -197 63 -10
1163 -10 1226 0 87 14 136 85 137 199 0 30 4 42 15 42 8 0 40 10 72 22 77 28
152 103 184 183 l24 60 0 1185 0 1185 -24 60 c-32 80 -107 154 -186 186 l-60
23 -705 2 c-388 1 -739 -1 -781 -5z m1553 -104 c53 -31 94 -79 114 -134 20
-56 20 -2370 0 -2426 -20 -55 -61 -103 -114 -134 l-47 -28 -785 0 -785 0 -48
28 c-54 32 -102 92 -117 148 -7 24 -9 445 -8 1221 l3 1183 28 47 c31 53 79 94
134 114 31 11 182 13 808 11 l770 -2 47 -28z"/>
<path d="M1119 2497 c-125 -66 -145 -235 -39 -331 86 -77 201 -70 278 18 l31
36 348 0 c311 0 352 2 383 18 49 24 66 63 48 110 -17 47 -65 72 -135 72 l-53
0 0 -51 c0 -31 -4 -48 -10 -44 -5 3 -10 26 -10 51 l0 44 -40 0 c-36 0 -40 -2
-40 -25 0 -14 -4 -25 -10 -25 -5 0 -10 11 -10 25 0 23 -4 25 -40 25 l-40 0 0
-45 c0 -38 -3 -45 -20 -45 -17 0 -20 7 -20 45 l0 45 -40 0 c-36 0 -40 -2 -40
-25 0 -14 -4 -25 -10 -25 -5 0 -10 11 -10 25 0 23 -4 25 -40 25 l-40 0 0 -45
c0 -38 -3 -45 -20 -45 -17 0 -20 7 -20 45 l0 45 -66 0 c-61 0 -67 2 -92 31
-57 68 -163 88 -243 46z"/>
<path d="M1441 1734 c-267 -72 -443 -322 -403 -576 15 -101 69 -206 146 -282
215 -215 576 -223 798 -18 115 107 169 223 170 368 0 146 -49 261 -153 364
-65 64 -165 121 -255 144 -77 20 -230 20 -303 0z m284 -69 c118 -31 230 -111
290 -206 88 -139 86 -332 -5 -463 -25 -38 -113 -126 -124 -126 -3 0 5 21 17
48 30 67 29 204 -2 283 -21 56 -86 140 -121 159 -17 9 -18 7 -9 -25 12 -42 8
-114 -5 -118 -6 -1 -29 22 -53 51 -56 69 -77 141 -70 238 l5 73 -47 -30 c-151
-92 -232 -255 -217 -439 l5 -75 -29 34 c-16 19 -35 51 -41 70 -18 56 -26 56
-44 1 -23 -68 -17 -168 14 -227 12 -24 17 -43 12 -43 -6 0 -35 24 -66 54 -99
97 -149 246 -126 374 32 176 169 318 351 366 73 19 192 20 265 1z m-143 -492
c36 -39 64 -98 78 -168 l12 -59 24 29 c13 17 29 45 35 64 l12 35 23 -27 c30
-35 56 -124 52 -179 -3 -41 -4 -42 -58 -61 -81 -28 -192 -33 -284 -13 -42 10
-76 20 -76 23 0 4 18 29 40 57 63 82 93 158 98 248 3 43 8 78 11 78 4 0 19
-12 33 -27z"/>
</g>
</svg>
