<?xml version="1.0" standalone="no"?>
<!DOCTYPE svg PUBLIC "-//W3C//DTD SVG 20010904//EN"
 "http://www.w3.org/TR/2001/REC-SVG-20010904/DTD/svg10.dtd">
<svg version="1.0" xmlns="http://www.w3.org/2000/svg"
 width="390.000000pt" height="320.000000pt" viewBox="0 0 390.000000 320.000000"
 preserveAspectRatio="xMidYMid meet">

<g transform="translate(0.000000,320.000000) scale(0.100000,-0.100000)"
fill="white" stroke="none">
<path d="M558 2710 c-52 -41 -31 -130 34 -144 13 -3 90 -12 172 -20 81 -8 150
-17 152 -19 2 -2 84 -266 180 -586 l177 -582 -85 -237 -85 -237 -39 -5 c-54
-8 -64 -16 -64 -54 0 -31 -3 -34 -45 -45 -154 -39 -175 -257 -31 -322 73 -33
136 -22 193 33 42 40 57 87 49 148 -4 29 -2 51 4 55 5 3 10 33 10 66 l0 59
740 0 740 0 0 -59 c0 -33 5 -63 10 -66 6 -4 8 -26 4 -55 -8 -61 7 -108 49
-148 97 -94 244 -56 287 73 31 93 -51 215 -144 215 -24 0 -26 4 -26 39 0 22
-6 43 -12 48 -7 4 -254 10 -549 13 l-536 5 -36 27 c-19 16 -46 43 -59 60 -22
32 -23 41 -23 218 l0 185 607 95 608 95 0 417 0 416 -47 6 c-27 4 -446 47
-933 96 -837 85 -886 91 -900 111 -8 11 -28 36 -45 55 -34 39 -68 47 -237 59
-86 7 -95 6 -120 -15z m202 -56 c74 -7 130 -26 130 -44 0 -6 -8 -10 -17 -10
-44 1 -274 28 -280 33 -3 4 -3 14 1 23 5 13 15 15 49 10 23 -3 76 -8 117 -12z
m386 -157 c9 -9 84 -289 84 -312 0 -3 -31 -5 -69 -5 l-69 0 -11 33 c-26 84
-91 299 -91 304 0 10 145 -9 156 -20z m190 -20 c6 -7 23 -66 38 -132 14 -66
29 -130 32 -142 6 -22 4 -23 -69 -23 l-75 0 -40 161 -40 161 71 -7 c40 -4 77
-12 83 -18z m186 -16 c8 -7 58 -254 58 -284 0 -17 -6 -18 -62 -12 -35 4 -66
10 -70 14 -4 3 -23 73 -41 154 l-35 149 72 -7 c39 -4 74 -10 78 -14z m189 -20
c3 -3 14 -55 24 -116 9 -60 19 -123 22 -138 l6 -28 -74 3 -74 3 -27 140 c-15
77 -27 144 -27 149 -1 9 141 -2 150 -13z m184 -22 c3 -4 14 -64 24 -133 l17
-126 -73 0 c-40 0 -73 3 -73 8 0 4 -9 61 -20 127 -27 167 -32 153 49 141 38
-6 72 -14 76 -17z m119 -4 c32 -4 59 -13 62 -19 2 -6 10 -62 17 -124 l14 -113
-71 3 -71 3 -12 90 c-6 50 -15 110 -18 134 -5 36 -4 43 8 38 7 -3 40 -8 71
-12z m238 -17 c12 -10 18 -40 23 -126 l7 -113 -73 3 -74 3 -12 100 c-18 159
-23 145 50 145 35 0 70 -6 79 -12z m172 -14 c13 -5 16 -25 16 -115 l0 -109
-59 0 c-33 0 -62 3 -64 8 -3 4 -8 55 -12 115 l-7 107 55 0 c30 0 62 -3 71 -6z
m194 -133 l3 -113 -63 7 c-35 4 -66 9 -70 12 -5 2 -8 51 -8 109 l0 105 68 -3
67 -3 3 -114z m140 -8 l3 -103 -51 0 -50 0 0 106 0 105 48 -3 47 -3 3 -102z
m-1517 -111 c13 -14 90 -345 82 -353 -4 -4 -30 -11 -58 -14 l-50 -7 -56 191
c-31 105 -53 193 -50 197 7 7 124 -5 132 -14z m179 5 c0 -1 16 -76 35 -166 19
-90 35 -169 35 -177 0 -11 -16 -14 -64 -14 l-64 0 -45 180 -45 180 74 0 c41 0
74 -1 74 -3z m193 -97 c9 -52 23 -128 31 -167 l14 -73 -67 0 -66 0 -34 152
c-19 84 -36 160 -39 170 -4 17 2 19 69 16 l74 -3 18 -95z m144 82 c14 -9 66
-293 55 -304 -4 -4 -34 -9 -66 -10 l-59 -3 -32 163 -31 162 60 0 c34 0 66 -4
73 -8z m172 -1 c9 -6 20 -55 32 -143 10 -73 19 -139 19 -145 0 -9 -20 -13 -65
-13 -36 0 -65 1 -65 3 0 1 -11 67 -25 147 -14 80 -25 148 -25 153 0 10 112 9
129 -2z m176 -3 c10 -10 37 -270 28 -278 -14 -14 -123 -24 -123 -11 0 12 -28
221 -36 270 l-5 33 65 -4 c36 -2 68 -6 71 -10z m178 -5 c3 -5 8 -65 12 -134
l7 -126 -62 -7 c-34 -4 -63 -6 -65 -4 -2 2 -8 48 -14 103 -6 55 -14 117 -17
138 l-6 37 71 0 c38 0 72 -3 74 -7z m177 -123 l0 -130 -59 0 c-33 0 -62 3 -64
8 -3 4 -8 62 -12 130 l-7 122 71 0 71 0 0 -130z m148 115 c9 -3 12 -36 12
-119 l0 -114 -56 -7 c-31 -4 -60 -3 -64 2 -4 4 -11 62 -15 129 l-7 121 58 -4
c33 -3 65 -6 72 -8z m150 -112 l3 -113 -51 0 -50 0 0 116 0 115 48 -3 47 -3 3
-112z m-128 -247 c0 -144 -3 -153 -57 -161 -25 -4 -49 -3 -53 2 -5 4 -11 61
-15 125 l-7 117 38 4 c22 2 51 4 67 5 l27 2 0 -94z m138 -15 c-1 -60 -5 -112
-8 -114 -3 -3 -26 -8 -52 -12 l-48 -7 0 121 0 121 56 0 56 0 -4 -109z m-454
12 c3 -42 6 -102 6 -133 l0 -57 -51 -7 c-29 -4 -55 -3 -59 1 -7 8 -30 189 -30
238 0 20 6 24 38 28 97 10 88 16 96 -70z m159 -5 c4 -46 7 -102 7 -124 l0 -42
-56 -7 c-31 -4 -60 -3 -64 2 -4 4 -11 63 -15 131 l-7 122 64 0 65 0 6 -82z
m-314 -60 c7 -68 15 -131 17 -140 5 -16 -2 -18 -59 -18 l-64 0 -11 93 c-6 50
-15 113 -18 140 l-7 47 65 0 65 0 12 -122z m-310 -35 c12 -76 21 -145 21 -154
0 -13 -14 -18 -56 -24 -31 -4 -57 -5 -59 -3 -4 4 -55 271 -55 291 0 15 19 20
101 25 26 2 26 2 48 -135z m142 120 c0 -10 8 -73 18 -141 9 -68 15 -125 12
-127 -3 -1 -31 -6 -61 -10 l-56 -7 -22 139 c-12 76 -22 144 -22 151 0 8 20 12
65 12 55 0 65 -3 66 -17z m-452 -165 c19 -87 33 -160 30 -162 -2 -2 -29 -7
-60 -11 l-56 -7 -38 154 c-21 84 -38 157 -39 163 -1 11 56 23 99 21 l30 -1 34
-157z m156 12 c16 -82 27 -151 24 -154 -9 -9 -119 -18 -119 -9 0 5 -15 77 -34
161 l-33 152 67 0 66 0 29 -150z m-314 -35 c22 -88 39 -164 39 -168 0 -4 -21
-7 -47 -5 l-47 3 -48 150 c-26 83 -46 155 -43 162 4 12 43 21 84 19 22 -1 26
-11 62 -161z m181 -387 c5 -181 13 -219 55 -275 l24 -33 -235 0 c-130 0 -236
1 -236 3 0 1 36 101 79 222 l79 220 93 17 c153 27 136 45 141 -154z m-562
-484 c0 -9 -11 -29 -25 -46 -29 -34 -31 -50 -9 -72 21 -22 25 -21 78 20 53 40
72 36 61 -14 -12 -59 -80 -97 -143 -80 -59 16 -90 99 -58 157 23 42 96 69 96
35z m1916 -18 c56 -56 44 -135 -28 -172 -57 -29 -121 1 -147 68 -9 25 -6 58 6
58 2 0 25 -16 50 -35 52 -40 56 -41 77 -19 22 22 20 38 -9 72 -53 63 -9 88 51
28z"/>
</g>
</svg>
