<?xml version="1.0" standalone="no"?>
<!DOCTYPE svg PUBLIC "-//W3C//DTD SVG 20010904//EN"
 "http://www.w3.org/TR/2001/REC-SVG-20010904/DTD/svg10.dtd">
<svg version="1.0" xmlns="http://www.w3.org/2000/svg"
 width="342.000000pt" height="255.000000pt" viewBox="0 0 342.000000 255.000000"
 preserveAspectRatio="xMidYMid meet">

<g transform="translate(0.000000,255.000000) scale(0.100000,-0.100000)"
fill="#000000" stroke="none">
<path d="M1579 1283 c-431 -680 -785 -1242 -787 -1249 -4 -15 34 -38 52 -31 6
3 60 81 118 174 l107 169 83 -10 c46 -5 268 -10 493 -10 365 -1 431 2 603 22
221 26 428 60 622 103 135 29 488 126 509 138 7 5 11 219 11 696 l2 690 -37
32 c-103 89 -454 178 -840 213 -60 5 -140 10 -177 10 -38 0 -68 2 -68 5 0 2
32 54 70 115 39 61 73 116 76 123 2 7 -8 20 -24 29 l-29 17 -784 -1236z m1731
-47 l0 -594 -72 -22 c-78 -24 -328 -90 -340 -90 -5 0 -8 264 -8 588 l0 587 87
18 c96 20 254 70 293 92 14 8 28 14 33 15 4 0 7 -267 7 -594z m-500 -135 l0
-589 -52 -12 c-85 -18 -337 -60 -364 -60 l-24 0 0 598 0 599 163 17 c89 10
180 21 202 26 83 16 75 82 75 -579z m-520 -74 l0 -604 -137 -11 c-76 -7 -193
-15 -260 -18 l-123 -7 -2 528 -3 528 57 88 57 88 133 4 c73 1 166 4 206 5 l72
2 0 -603z m-600 -174 l0 -466 -222 6 c-285 9 -351 15 -344 34 6 15 559 892
564 893 1 0 2 -210 2 -467z"/>
<path d="M1275 2244 c-437 -22 -709 -59 -994 -135 -124 -33 -175 -55 -206 -89
-20 -22 -20 -38 -23 -711 l-2 -689 100 -50 c136 -68 229 -104 362 -140 119
-31 286 -60 353 -60 l40 0 395 646 c217 356 397 651 398 655 2 5 -50 9 -115 9
-348 0 -924 63 -1123 123 l-45 13 41 22 c147 76 517 115 1034 110 l344 -3 92
140 91 140 -41 7 c-48 7 -599 17 -701 12z m-1020 -447 c61 -25 152 -55 203
-68 l92 -24 0 -606 0 -607 -67 20 c-89 27 -197 70 -282 112 l-68 35 -6 332
c-11 547 -9 862 6 856 6 -3 62 -26 122 -50z m517 -126 c73 -11 162 -22 198
-26 36 -3 82 -8 103 -11 l37 -6 0 -392 0 -392 -122 -202 -123 -203 -45 6 c-25
3 -78 11 -117 17 l-73 11 0 608 c0 335 2 609 4 609 3 0 65 -9 138 -19z m797
-67 c3 -3 -244 -413 -351 -583 l-28 -45 0 323 0 323 188 -7 c103 -4 189 -9
191 -11z"/>
</g>
</svg>
