<?xml version="1.0" standalone="no"?>
<!DOCTYPE svg PUBLIC "-//W3C//DTD SVG 20010904//EN"
 "http://www.w3.org/TR/2001/REC-SVG-20010904/DTD/svg10.dtd">
<svg version="1.0" xmlns="http://www.w3.org/2000/svg"
 width="342.000000pt" height="296.000000pt" viewBox="0 0 342.000000 296.000000"
 preserveAspectRatio="xMidYMid meet">

<g transform="translate(0.000000,296.000000) scale(0.100000,-0.100000)"
fill="white" stroke="none">
<path d="M2023 2796 c-6 -7 -31 -16 -55 -20 -70 -11 -216 -88 -285 -150 -78
-71 -93 -72 -93 -6 0 49 -1 50 -30 50 -29 0 -30 -1 -30 -50 l0 -50 -60 0 -60
0 0 -30 0 -30 60 0 c56 0 60 -1 60 -24 0 -13 -21 -58 -46 -101 -26 -42 -66
-125 -90 -183 l-43 -107 -51 -3 c-48 -3 -50 -4 -50 -33 0 -27 2 -29 40 -29
l40 0 -20 -52 c-44 -114 -104 -219 -162 -283 -33 -36 -64 -65 -69 -65 -5 0 -9
18 -9 40 0 38 -2 40 -30 40 -29 0 -30 -1 -30 -50 l0 -50 -100 0 -100 0 0 -30
0 -29 73 -3 72 -3 -135 -69 c-74 -38 -153 -80 -175 -94 -25 -16 -52 -25 -72
-23 -28 1 -33 -2 -33 -22 0 -15 -15 -36 -44 -60 -25 -20 -64 -66 -87 -102
l-43 -65 -68 0 -68 0 0 -30 c0 -30 0 -30 56 -30 54 0 56 -1 50 -22 -27 -99
-38 -189 -34 -272 3 -50 8 -99 13 -108 6 -16 1 -18 -39 -18 -42 0 -46 -2 -46
-25 0 -24 3 -25 54 -25 51 0 56 -2 75 -34 25 -40 93 -104 139 -131 24 -14 32
-26 32 -47 0 -23 4 -28 25 -28 16 0 25 6 25 16 0 11 5 14 18 9 75 -29 320 -75
398 -75 7 0 14 -9 14 -20 0 -16 7 -20 30 -20 23 0 30 5 30 19 0 16 12 19 121
25 67 4 164 14 217 22 132 19 122 23 122 -46 l0 -60 30 0 30 0 0 69 0 68 63
13 c34 7 131 32 214 56 84 24 155 44 158 44 3 0 5 -25 5 -55 0 -54 0 -55 30
-55 l30 0 0 68 1 67 95 45 c83 39 102 45 150 42 l54 -4 0 31 c0 25 -4 31 -22
31 -20 0 -16 6 25 41 26 23 68 66 92 96 l45 55 0 -46 c0 -44 1 -46 30 -46 l30
0 0 89 c0 86 1 92 41 160 l41 71 69 0 69 0 0 30 c0 30 -1 30 -55 30 -30 0 -55
2 -55 4 0 2 11 33 25 69 29 78 71 242 81 315 l7 52 48 0 c48 0 49 1 49 30 0
29 -2 30 -42 30 l-43 0 0 178 c0 97 -3 192 -7 210 l-7 32 49 0 c49 0 50 1 50
30 0 30 -1 30 -53 30 l-53 0 -27 98 c-27 97 -89 238 -128 293 l-20 29 30 0
c28 0 31 3 31 30 0 29 -1 30 -50 30 l-50 0 0 70 0 70 -30 0 c-28 0 -30 -2 -30
-40 l0 -40 -50 39 c-93 74 -223 121 -332 121 -32 0 -58 4 -58 10 0 15 -53 11
-67 -4z m7 -151 l0 -75 -152 0 -153 0 30 25 c63 51 142 87 273 124 1 1 2 -33
2 -74z m215 61 c69 -18 152 -60 200 -101 l40 -34 -197 -1 -198 0 0 75 0 75 53
0 c28 0 75 -6 102 -14z m-215 -406 l0 -210 -220 0 -220 0 0 166 0 167 36 43
35 44 185 0 184 0 0 -210z m500 0 l0 -210 -220 0 -220 0 0 210 0 210 220 0
220 0 0 -210z m103 63 c32 -64 63 -149 86 -235 l9 -38 -69 0 -69 0 0 170 c0
94 2 170 5 170 3 0 20 -30 38 -67z m-1103 -158 l0 -115 -51 0 c-48 0 -50 1
-44 23 10 32 86 207 91 207 2 0 4 -52 4 -115z m0 -385 l0 -210 -181 0 -181 0
46 51 c58 64 104 146 153 271 l38 98 63 0 62 0 0 -210z m500 0 l0 -210 -220 0
-220 0 0 210 0 210 220 0 220 0 0 -210z m500 0 l0 -210 -220 0 -220 0 0 210 0
210 220 0 220 0 0 -210z m213 180 c13 -60 19 -239 12 -313 l-7 -77 -79 0 -79
0 0 210 0 210 74 0 c73 0 74 0 79 -30z m-1213 -670 l0 -220 -230 0 -230 0 0
214 c0 162 3 216 13 219 6 3 110 6 230 6 l217 1 0 -220z m500 0 l0 -220 -220
0 -220 0 0 220 0 220 220 0 220 0 0 -220z m500 0 l0 -220 -220 0 -220 0 0 220
0 220 220 0 220 0 0 -220z m205 173 c-21 -140 -105 -393 -131 -393 -12 0 -14
36 -14 220 l0 220 76 0 76 0 -7 -47z m-1725 -203 l0 -190 -210 0 -210 0 0 74
c0 73 1 76 33 100 30 23 363 203 380 205 4 1 7 -84 7 -189z m-470 -140 l0 -50
-46 0 c-33 0 -43 3 -38 13 18 28 68 87 76 87 4 0 8 -22 8 -50z m-4 -141 c-3
-17 -6 -112 -6 -210 l0 -179 -65 0 c-62 0 -66 1 -76 28 -29 71 -21 225 17 345
l16 47 60 0 61 0 -7 -31z m474 -179 l0 -210 -209 0 c-116 0 -212 3 -215 8 -2
4 -2 98 1 210 l6 202 209 0 208 0 0 -210z m520 0 l0 -210 -230 0 -230 0 0 210
0 210 230 0 230 0 0 -210z m500 0 l0 -210 -220 0 -220 0 0 210 0 210 220 0
220 0 0 -210z m500 159 c0 -36 -6 -60 -22 -82 -58 -85 -138 -173 -205 -227
l-74 -60 -70 0 -69 0 0 210 0 210 220 0 220 0 0 -51z m-2000 -470 c0 -47 -1
-50 -17 -38 -35 26 -83 73 -83 81 0 4 23 8 50 8 l50 0 0 -51z m480 -59 l0
-109 -52 5 c-100 9 -242 37 -307 59 l-66 22 -3 66 -3 67 216 0 215 0 0 -110z
m520 26 c0 -72 -3 -85 -18 -90 -32 -11 -226 -34 -334 -41 l-108 -7 0 111 0
111 230 0 230 0 0 -84z m500 64 c0 -15 -18 -25 -93 -49 -79 -25 -210 -60 -319
-85 l-28 -6 0 80 0 80 220 0 c212 0 220 -1 220 -20z m80 16 c0 -3 -4 -8 -10
-11 -5 -3 -10 -1 -10 4 0 6 5 11 10 11 6 0 10 -2 10 -4z"/>
</g>
</svg>
