<?xml version="1.0" standalone="no"?>
<!DOCTYPE svg PUBLIC "-//W3C//DTD SVG 20010904//EN"
 "http://www.w3.org/TR/2001/REC-SVG-20010904/DTD/svg10.dtd">
<svg version="1.0" xmlns="http://www.w3.org/2000/svg"
 width="390.000000pt" height="320.000000pt" viewBox="0 0 390.000000 320.000000"
 preserveAspectRatio="xMidYMid meet">

<g transform="translate(0.000000,320.000000) scale(0.100000,-0.100000)"
fill="#000000" stroke="none">
<path d="M570 2903 c-294 -108 -537 -197 -539 -199 -2 -2 796 -2203 930 -2560
8 -21 14 -20 248 66 132 48 242 84 243 81 2 -3 233 -2 515 3 l512 9 231 -93
c127 -51 232 -91 234 -89 8 9 938 2580 934 2584 -12 13 -1083 394 -1089 387
-3 -4 -59 -151 -125 -327 l-119 -319 -3 304 -2 305 -538 -3 c-295 -1 -556 -5
-579 -8 l-43 -5 -2 -331 -3 -332 -129 355 c-71 195 -132 357 -135 360 -3 4
-247 -81 -541 -188z m2373 68 c53 -19 97 -39 97 -45 0 -6 -21 -68 -46 -138
l-46 -127 -107 39 c-70 25 -105 43 -103 52 9 38 96 258 101 256 4 -2 51 -18
104 -37z m-1807 -150 c36 -96 63 -175 62 -177 -2 -1 -30 5 -64 14 -52 13 -70
14 -117 3 -119 -26 -180 -93 -273 -301 -69 -156 -115 -219 -185 -254 -83 -41
-191 -28 -240 30 -15 18 -190 483 -193 513 -1 15 894 351 928 348 14 -2 32
-39 82 -176z m1324 -1146 l0 -1305 -197 0 c-109 0 -283 -3 -388 -6 -126 -4
-187 -3 -180 3 6 6 92 41 193 78 100 37 182 68 182 70 0 1 -12 33 -26 71 -24
64 -24 69 -8 81 19 14 17 17 -36 78 -21 23 -86 178 -128 305 -3 8 16 -5 42
-30 l46 -44 52 52 53 52 -50 50 -49 50 -53 -52 c-37 -36 -54 -47 -57 -37 -3 8
-44 118 -91 245 -47 127 -85 237 -85 244 0 8 18 33 40 55 l40 41 -50 49 c-49
48 -50 48 -70 30 -11 -10 -22 -16 -23 -14 -2 2 -38 98 -80 212 l-77 208 0 404
0 404 63 4 c34 2 259 4 500 5 l437 2 0 -1305z m726 1208 c57 -21 104 -43 104
-50 0 -11 -87 -253 -93 -259 -2 -2 -50 14 -107 35 -72 27 -105 44 -104 54 2
18 88 257 93 257 2 0 50 -17 107 -37z m351 -128 c7 -2 -5 -48 -37 -135 -27
-72 -50 -133 -52 -136 -5 -5 -199 65 -211 75 -6 6 71 233 89 262 2 5 48 -7
102 -27 53 -19 102 -36 109 -39z m251 -91 c3 -2 -84 -250 -94 -265 -4 -7 -179
51 -205 67 -7 4 32 125 80 246 l10 28 103 -37 c57 -20 104 -37 106 -39z m-858
-41 c0 -10 -89 -263 -96 -271 -2 -4 -204 67 -213 75 -3 2 41 132 90 260 l8 22
106 -37 c58 -20 105 -42 105 -49z m-1753 -14 c38 -19 45 -27 71 -97 75 -195
224 -613 220 -617 -2 -2 -22 2 -43 10 -97 35 -193 9 -275 -74 -55 -56 -66 -75
-157 -271 -58 -123 -99 -175 -168 -206 -55 -26 -99 -30 -155 -13 -78 24 -81
29 -214 394 -68 187 -123 341 -121 343 1 1 18 -5 38 -13 20 -8 60 -15 89 -15
112 0 208 77 275 220 103 220 124 257 161 294 77 74 182 91 279 45z m1994 -64
c14 -5 10 -24 -34 -143 -27 -75 -51 -139 -53 -141 -7 -7 -214 74 -214 84 0 11
86 250 96 266 4 6 107 -27 205 -66z m236 -87 l30 -13 -48 -130 c-26 -71 -50
-134 -52 -139 -4 -12 -217 63 -217 77 0 10 87 254 96 268 4 7 115 -30 191 -63z
m268 -99 c5 -6 -82 -257 -95 -272 -8 -9 -210 62 -210 74 0 7 45 134 91 256 8
21 8 21 108 -16 55 -20 102 -39 106 -42z m-872 -34 c9 -4 17 -9 17 -11 0 -10
-93 -260 -100 -267 -6 -7 -73 13 -162 48 -31 12 -24 114 14 216 l32 87 90 -33
c50 -18 99 -36 109 -40z m225 -82 c23 -9 42 -18 42 -21 0 -12 -92 -258 -100
-266 -11 -11 -222 65 -216 79 2 6 25 70 51 142 l47 131 67 -24 c36 -14 85 -32
109 -41z m188 -68 c54 -20 100 -37 102 -40 8 -8 -93 -275 -105 -275 -11 0
-204 67 -210 73 -2 3 23 72 83 235 9 23 20 42 24 42 5 0 53 -16 106 -35z m251
-91 l102 -36 -41 -112 c-22 -61 -44 -123 -50 -138 -5 -16 -15 -28 -21 -28 -6
0 -54 16 -108 36 l-98 36 41 111 c22 62 44 124 50 140 5 15 13 27 16 27 4 0
53 -16 109 -36z m-759 -85 c-2 -3 -25 -67 -52 -141 l-49 -135 -33 10 -34 10 0
162 0 162 85 -30 c47 -17 84 -34 83 -38z m144 -46 c57 -20 104 -37 105 -38 2
-1 -20 -65 -49 -142 l-51 -142 -101 36 c-55 20 -105 39 -109 43 -10 9 85 280
98 280 2 0 50 -16 107 -37z m244 -89 c55 -19 102 -38 106 -42 5 -5 -85 -268
-95 -279 -4 -3 -204 71 -212 78 -7 7 89 279 99 279 2 0 48 -16 102 -36z
m-1647 -3 c22 -12 43 -26 46 -31 9 -15 254 -684 251 -687 -1 -1 -24 4 -51 12
-104 32 -192 9 -271 -70 -51 -50 -57 -62 -174 -310 -61 -127 -140 -189 -245
-189 -89 0 -136 28 -163 96 -33 82 -232 631 -232 640 0 4 19 1 41 -7 61 -22
126 -18 184 9 81 38 126 97 219 290 69 142 92 180 127 210 78 66 181 81 268
37z m1909 -92 c50 -18 92 -37 92 -41 0 -12 -92 -262 -99 -269 -6 -6 -193 60
-206 72 -4 5 24 91 86 258 5 12 15 21 22 18 6 -2 54 -19 105 -38z m-777 -69
c14 0 11 -20 -16 -90 l-24 -65 0 84 c-1 72 1 82 15 77 9 -3 20 -6 25 -6z m161
-61 c54 -19 98 -38 98 -44 0 -9 -90 -265 -96 -273 -1 -2 -48 13 -103 33 -93
34 -101 39 -101 64 0 37 82 262 95 258 5 -2 54 -19 107 -38z m234 -85 c55 -19
103 -39 108 -44 7 -7 -75 -260 -90 -279 -6 -7 -214 74 -214 84 0 9 93 275 96
275 1 0 46 -16 100 -36z m337 -123 c15 -6 27 -12 27 -13 0 -7 -99 -270 -102
-274 -9 -8 -208 69 -208 81 0 11 86 250 95 266 5 6 70 -14 188 -60z m-610
-133 c32 -12 34 1 -27 -166 -24 -64 -48 -118 -54 -120 -5 -1 -26 4 -46 12
l-36 15 0 160 0 160 68 -25 c37 -13 79 -30 95 -36z m235 -85 c23 -9 42 -17 42
-19 0 -11 -94 -261 -100 -268 -12 -12 -222 64 -217 78 2 6 25 70 51 143 l48
131 67 -24 c36 -14 85 -32 109 -41z m190 -69 l100 -36 -23 -61 c-12 -34 -35
-97 -50 -139 -15 -43 -31 -78 -36 -78 -9 0 -201 69 -206 74 -2 1 17 59 42 127
25 68 48 130 50 137 6 17 12 16 123 -24z m-1442 -19 c28 -8 60 -25 71 -37 24
-26 206 -520 195 -529 -21 -18 -934 -341 -941 -333 -10 11 -132 346 -128 350
1 2 21 -3 42 -11 66 -23 124 -19 194 16 81 40 125 99 196 260 85 192 137 256
229 285 55 17 83 17 142 -1z m900 -138 l32 -12 -39 -105 -38 -105 0 118 c-1
64 2 117 7 116 4 0 21 -6 38 -12z m169 -62 c53 -19 100 -37 104 -40 6 -3 -81
-266 -93 -282 -3 -4 -204 72 -211 79 -8 8 86 278 97 278 4 0 50 -16 103 -35z
m263 -95 c50 -18 92 -36 92 -40 0 -5 -22 -68 -49 -142 -33 -89 -54 -132 -63
-130 -29 7 -183 65 -191 72 -5 4 12 65 38 136 53 146 53 147 69 141 6 -2 53
-19 104 -37z m-275 -260 c8 -7 -67 -233 -83 -252 -3 -4 -31 2 -63 15 l-57 22
0 147 0 147 98 -35 c53 -19 101 -39 105 -44z m152 -50 c50 -18 93 -35 97 -39
12 -11 -88 -266 -103 -263 -12 2 -188 72 -197 77 -8 6 94 265 103 262 5 -2 51
-19 100 -37z"/>
<path d="M1605 2910 l-50 -50 53 -53 52 -52 50 50 50 50 -53 53 -53 52 -49
-50z"/>
<path d="M2215 2880 l-49 -50 49 -50 49 -50 53 52 53 52 -47 48 c-26 26 -50
48 -53 48 -3 0 -28 -22 -55 -50z"/>
<path d="M1912 2707 l-52 -53 50 -49 50 -50 53 53 52 52 -50 50 -50 50 -53
-53z"/>
<path d="M1605 2510 l-49 -50 49 -50 49 -50 53 52 53 52 -47 48 c-26 26 -50
48 -53 48 -3 0 -28 -22 -55 -50z"/>
<path d="M2215 2490 l-50 -50 53 -53 52 -52 52 52 53 53 -50 50 c-27 27 -52
50 -55 50 -3 0 -28 -23 -55 -50z"/>
<path d="M1907 2312 l-47 -48 53 -52 53 -52 49 50 49 50 -49 50 c-27 28 -52
50 -55 50 -3 0 -27 -22 -53 -48z"/>
<path d="M1605 2120 l-50 -50 53 -53 52 -52 50 50 50 50 -53 53 -53 52 -49
-50z"/>
<path d="M2215 2090 l-49 -50 49 -50 49 -50 53 52 53 52 -47 48 c-26 26 -50
48 -53 48 -3 0 -28 -22 -55 -50z"/>
<path d="M1912 1917 l-52 -53 50 -49 50 -50 53 53 52 52 -50 50 -50 50 -53
-53z"/>
<path d="M2215 1700 l-50 -50 53 -53 52 -52 52 52 53 53 -50 50 c-27 27 -52
50 -55 50 -3 0 -28 -23 -55 -50z"/>
<path d="M1907 1522 l-47 -48 53 -52 53 -52 49 50 49 50 -49 50 c-27 28 -52
50 -55 50 -3 0 -27 -22 -53 -48z"/>
<path d="M2215 1300 l-49 -50 49 -50 49 -50 53 52 53 52 -47 48 c-26 26 -50
48 -53 48 -3 0 -28 -22 -55 -50z"/>
<path d="M2215 910 l-50 -50 53 -53 52 -52 52 52 53 53 -50 50 c-27 27 -52 50
-55 50 -3 0 -28 -23 -55 -50z"/>
<path d="M2215 540 l-50 -50 53 -53 52 -52 50 50 50 50 -53 53 -53 52 -49 -50z"/>
</g>
</svg>
