<?xml version="1.0" standalone="no"?>
<!DOCTYPE svg PUBLIC "-//W3C//DTD SVG 20010904//EN"
 "http://www.w3.org/TR/2001/REC-SVG-20010904/DTD/svg10.dtd">
<svg version="1.0" xmlns="http://www.w3.org/2000/svg"
 width="342.000000pt" height="320.000000pt" viewBox="0 0 342.000000 320.000000"
 preserveAspectRatio="xMidYMid meet">

<g transform="translate(0.000000,320.000000) scale(0.100000,-0.100000)"
fill="white" stroke="none">
<path d="M920 2941 c-6 -11 -10 -89 -10 -180 l0 -161 120 0 120 0 0 161 c0 91
-4 169 -10 180 -10 17 -22 19 -110 19 -88 0 -100 -2 -110 -19z"/>
<path d="M2087 2942 c-14 -16 -17 -44 -17 -180 l0 -162 130 0 130 0 0 163 c0
203 4 197 -132 197 -79 0 -98 -3 -111 -18z"/>
<path d="M553 2690 c-12 -5 -30 -21 -40 -37 -17 -26 -18 -81 -18 -1080 l0
-1053 28 -27 27 -28 1044 -3 c821 -2 1052 0 1082 10 79 26 74 -48 74 1108 0
794 -3 1030 -13 1049 -28 55 -58 66 -198 69 l-129 4 0 -69 c0 -60 -3 -73 -23
-91 -22 -21 -32 -22 -195 -22 -203 0 -202 -1 -202 112 l0 68 -380 0 -380 0 0
-73 c0 -108 1 -107 -202 -107 -199 0 -198 -1 -198 108 l0 72 -127 -1 c-71 0
-138 -4 -150 -9z m2037 -1240 l0 -770 -980 0 -980 0 0 770 0 770 980 0 980 0
0 -770z"/>
<path d="M877 1973 c-4 -3 -7 -57 -7 -120 l0 -113 120 0 120 0 0 120 0 120
-113 0 c-63 0 -117 -3 -120 -7z"/>
<path d="M1277 1973 c-4 -3 -7 -57 -7 -120 l0 -113 120 0 120 0 0 120 0 120
-113 0 c-63 0 -117 -3 -120 -7z"/>
<path d="M1717 1974 c-4 -4 -7 -58 -7 -121 l0 -113 120 0 121 0 -3 118 -3 117
-111 3 c-60 1 -113 -1 -117 -4z"/>
<path d="M2117 1973 c-4 -3 -7 -57 -7 -120 l0 -113 120 0 120 0 0 120 0 120
-113 0 c-63 0 -117 -3 -120 -7z"/>
<path d="M877 1554 c-4 -4 -7 -58 -7 -121 l0 -113 120 0 121 0 -3 118 -3 117
-111 3 c-60 1 -113 -1 -117 -4z"/>
<path d="M1277 1553 c-4 -3 -7 -57 -7 -120 l0 -113 120 0 120 0 0 120 0 120
-113 0 c-63 0 -117 -3 -120 -7z"/>
<path d="M1717 1554 c-4 -4 -7 -58 -7 -121 l0 -113 120 0 121 0 -3 118 -3 117
-111 3 c-60 1 -113 -1 -117 -4z"/>
<path d="M2117 1553 c-4 -3 -7 -57 -7 -120 l0 -113 120 0 120 0 0 120 0 120
-113 0 c-63 0 -117 -3 -120 -7z"/>
<path d="M877 1114 c-4 -4 -7 -58 -7 -121 l0 -113 120 0 121 0 -3 118 -3 117
-111 3 c-60 1 -113 -1 -117 -4z"/>
<path d="M1277 1113 c-4 -3 -7 -57 -7 -120 l0 -113 120 0 120 0 0 120 0 120
-113 0 c-63 0 -117 -3 -120 -7z"/>
<path d="M1717 1113 c-4 -3 -7 -57 -7 -120 l0 -113 120 0 120 0 0 120 0 120
-113 0 c-63 0 -117 -3 -120 -7z"/>
<path d="M2117 1113 c-4 -3 -7 -57 -7 -120 l0 -113 120 0 120 0 0 120 0 120
-113 0 c-63 0 -117 -3 -120 -7z"/>
</g>
</svg>
