<?xml version="1.0" standalone="no"?>
<!DOCTYPE svg PUBLIC "-//W3C//DTD SVG 20010904//EN"
 "http://www.w3.org/TR/2001/REC-SVG-20010904/DTD/svg10.dtd">
<svg version="1.0" xmlns="http://www.w3.org/2000/svg"
 width="390.000000pt" height="320.000000pt" viewBox="0 0 390.000000 320.000000"
 preserveAspectRatio="xMidYMid meet">

<g transform="translate(0.000000,320.000000) scale(0.100000,-0.100000)"
fill="#000000" stroke="none">
<path d="M2035 2833 c-125 -248 -102 -227 -267 -237 l-98 -5 -76 100 -76 101
-80 -109 c-59 -79 -87 -109 -105 -111 -20 -3 -22 -6 -13 -18 13 -15 24 1 -333
-484 l-173 -235 196 -3 197 -2 6 -113 c46 -844 736 -1539 1573 -1584 l114 -6
0 306 0 306 -57 5 c-261 26 -447 100 -634 251 -215 174 -362 463 -377 738 l-5
97 197 0 c108 0 196 2 196 5 0 3 -22 36 -50 74 -27 38 -50 71 -50 74 0 25 63
1 281 -109 138 -69 253 -124 255 -122 2 2 -26 107 -61 233 -36 126 -65 234
-65 240 1 5 105 84 232 175 l231 165 -303 21 c-271 19 -305 24 -317 40 -8 11
-60 110 -116 221 -56 112 -104 203 -107 203 -3 0 -54 -98 -115 -217z m203
-148 c59 -118 87 -165 99 -165 57 -1 375 -29 379 -33 3 -3 -59 -51 -138 -107
-79 -56 -146 -105 -150 -109 -4 -4 13 -78 37 -165 25 -88 45 -165 45 -173 0
-9 -62 18 -180 79 l-180 93 -180 -93 c-118 -61 -180 -88 -180 -79 0 8 20 85
45 173 24 87 41 161 37 165 -4 4 -72 53 -151 110 -166 119 -167 112 24 123 66
4 146 9 178 13 l58 6 82 163 c45 90 84 164 87 164 3 0 42 -74 88 -165z"/>
</g>
</svg>
