<?xml version="1.0" standalone="no"?>
<!DOCTYPE svg PUBLIC "-//W3C//DTD SVG 20010904//EN"
 "http://www.w3.org/TR/2001/REC-SVG-20010904/DTD/svg10.dtd">
<svg version="1.0" xmlns="http://www.w3.org/2000/svg"
 width="342.000000pt" height="255.000000pt" viewBox="0 0 342.000000 255.000000"
 preserveAspectRatio="xMidYMid meet">

<g transform="translate(0.000000,255.000000) scale(0.100000,-0.100000)"
fill="#000000" stroke="none">
<path d="M1113 2449 c-15 -35 -98 -206 -185 -379 -129 -255 -161 -328 -171
-382 -13 -79 -1 -163 35 -236 31 -65 116 -148 185 -180 52 -24 69 -27 168 -27
102 0 114 2 168 29 72 37 150 118 185 193 20 45 27 77 29 143 5 110 -5 134
-174 461 -72 140 -148 295 -168 344 -21 50 -39 92 -41 94 -2 2 -16 -25 -31
-60z m-135 -941 c22 -18 45 -43 51 -56 45 -94 -70 -146 -122 -56 -7 12 -21 33
-31 48 -15 22 -17 31 -7 52 9 21 38 41 62 43 4 1 25 -14 47 -31z"/>
<path d="M1876 1922 c-27 -64 -150 -316 -273 -560 -241 -476 -263 -533 -263
-666 0 -149 62 -298 169 -406 145 -147 328 -205 528 -167 221 42 394 202 459
422 22 78 22 220 0 305 -10 37 -69 166 -138 300 -262 509 -336 659 -378 765
-24 61 -46 113 -49 117 -4 4 -28 -45 -55 -110z m-177 -1415 c61 -58 85 -106
76 -147 -16 -74 -116 -103 -158 -45 -12 16 -32 38 -45 50 -13 11 -32 35 -44
53 -40 65 4 142 81 142 30 0 45 -9 90 -53z"/>
</g>
</svg>
