<?xml version="1.0" standalone="no"?>
<!DOCTYPE svg PUBLIC "-//W3C//DTD SVG 20010904//EN"
 "http://www.w3.org/TR/2001/REC-SVG-20010904/DTD/svg10.dtd">
<svg version="1.0" xmlns="http://www.w3.org/2000/svg"
 width="342.000000pt" height="296.000000pt" viewBox="0 0 342.000000 296.000000"
 preserveAspectRatio="xMidYMid meet">

<g transform="translate(0.000000,296.000000) scale(0.100000,-0.100000)"
fill="#000000" stroke="none">
<path d="M808 2925 c-3 -3 21 -68 53 -143 32 -75 59 -145 59 -154 0 -28 -58
-85 -113 -112 -78 -39 -155 -51 -197 -33 -32 13 -40 26 -95 156 -32 77 -65
141 -71 141 -20 0 -37 -106 -32 -200 5 -100 40 -189 104 -259 48 -54 89 -74
188 -94 105 -22 176 -57 246 -126 61 -58 1021 -1223 1168 -1416 107 -141 179
-284 192 -383 16 -117 61 -187 152 -237 47 -27 62 -30 138 -30 69 0 93 5 127
23 170 90 214 308 90 448 -30 34 -66 58 -132 90 -116 55 -234 143 -360 269
-134 134 -1130 1347 -1172 1427 -36 70 -59 157 -72 278 -6 47 -17 103 -26 125
-27 65 -91 141 -159 189 -62 45 -77 52 -88 41z m1832 -2389 c32 0 49 -5 58
-18 7 -10 28 -25 45 -34 37 -19 47 -31 47 -58 0 -11 10 -30 21 -42 19 -20 20
-27 10 -55 -6 -18 -9 -47 -5 -65 5 -26 1 -35 -17 -48 -13 -9 -30 -30 -39 -48
-11 -23 -24 -34 -48 -39 -18 -4 -42 -15 -53 -25 -17 -15 -25 -16 -50 -7 -16 7
-45 9 -63 6 -27 -4 -36 -1 -49 17 -8 12 -30 29 -48 38 -24 12 -35 26 -40 50
-4 18 -14 41 -24 52 -14 16 -15 25 -7 49 6 17 8 46 5 65 -4 28 -1 36 17 46 12
6 28 27 36 45 11 27 21 35 48 41 19 3 43 15 52 26 13 13 24 17 39 12 11 -4 40
-7 65 -8z"/>
</g>
</svg>
