<?xml version="1.0" standalone="no"?>
<!DOCTYPE svg PUBLIC "-//W3C//DTD SVG 20010904//EN"
 "http://www.w3.org/TR/2001/REC-SVG-20010904/DTD/svg10.dtd">
<svg version="1.0" xmlns="http://www.w3.org/2000/svg"
 width="342.000000pt" height="320.000000pt" viewBox="0 0 342.000000 320.000000"
 preserveAspectRatio="xMidYMid meet">

<g transform="translate(0.000000,320.000000) scale(0.100000,-0.100000)"
fill="#000000" stroke="none">
<path d="M605 3027 c-61 -46 -77 -65 -128 -155 -40 -71 -61 -122 -68 -160 -13
-79 -11 -138 3 -149 7 -6 159 -79 338 -162 296 -139 329 -152 365 -146 96 14
98 13 108 -27 7 -31 13 -38 33 -38 14 0 27 -7 31 -16 3 -8 11 -13 19 -10 7 3
18 -2 24 -10 14 -16 43 -18 70 -4 41 22 144 193 161 268 9 43 -4 82 -30 82
-10 0 -21 7 -25 15 -3 8 -15 15 -26 15 -11 0 -20 7 -20 15 0 13 -9 14 -45 9
-56 -7 -75 6 -75 51 0 18 -8 42 -17 53 -28 31 -611 422 -631 422 -9 0 -48 -24
-87 -53z m341 -293 c156 -103 284 -190 284 -195 0 -31 -56 -1 -306 162 -154
100 -281 183 -283 185 -5 4 7 34 14 34 4 0 134 -84 291 -186z m-92 -168 c201
-98 296 -150 296 -160 0 -9 -5 -16 -12 -16 -13 0 -586 277 -605 292 -19 15
-16 28 6 28 11 0 152 -65 315 -144z"/>
<path d="M1807 2062 c-34 -37 -11 -92 38 -92 50 0 73 60 37 93 -24 22 -55 21
-75 -1z"/>
<path d="M1437 2032 c-26 -28 -21 -69 9 -89 24 -15 29 -15 53 -2 16 9 27 25
29 43 7 55 -56 87 -91 48z"/>
<path d="M2122 1788 c-18 -18 -14 -63 6 -81 52 -47 126 28 76 77 -18 19 -65
21 -82 4z"/>
<path d="M1766 1744 c-21 -21 -20 -57 2 -77 24 -22 55 -21 75 1 34 37 11 92
-38 92 -13 0 -31 -7 -39 -16z"/>
<path d="M1436 1634 c-25 -24 -20 -71 8 -90 55 -35 114 39 70 87 -21 23 -57
25 -78 3z"/>
<path d="M1686 1409 c-14 -11 -26 -29 -26 -39 0 -18 43 -60 62 -60 13 0 58 47
58 60 0 13 -45 60 -58 60 -5 0 -21 -9 -36 -21z"/>
<path d="M2126 1404 c-34 -33 -9 -94 38 -94 28 0 56 29 56 57 0 44 -63 69 -94
37z"/>
<path d="M400 981 c0 -54 3 -71 14 -71 8 0 59 -18 115 -41 137 -55 184 -55
320 0 128 52 164 53 272 5 137 -60 206 -61 334 -2 106 49 163 49 264 3 139
-62 210 -63 350 -1 100 44 148 46 228 10 160 -72 216 -74 364 -15 56 23 110
41 120 41 17 0 19 8 19 71 l0 72 -39 -7 c-21 -3 -85 -24 -141 -47 -122 -49
-140 -48 -261 7 -75 35 -92 39 -164 39 -72 0 -88 -4 -165 -40 -113 -53 -156
-53 -269 -1 -136 62 -217 59 -373 -14 -77 -36 -105 -37 -183 -4 -181 77 -232
79 -392 15 -55 -23 -111 -41 -123 -41 -13 0 -67 18 -121 40 -54 21 -115 42
-134 46 l-35 6 0 -71z"/>
<path d="M400 682 c0 -68 1 -70 28 -75 15 -3 65 -21 112 -41 120 -50 178 -50
311 4 128 52 159 51 284 -1 90 -38 104 -41 169 -37 54 3 90 13 154 41 111 50
157 50 266 0 75 -35 88 -38 171 -38 83 0 96 3 171 37 108 50 150 50 258 1 65
-30 96 -38 157 -41 71 -4 84 -1 179 37 56 23 111 41 121 41 17 0 19 8 19 71
l0 72 -39 -7 c-21 -3 -85 -24 -141 -47 -122 -49 -140 -48 -261 7 -75 35 -92
39 -164 39 -72 0 -88 -4 -165 -40 -113 -53 -156 -53 -269 -1 -138 63 -204 60
-386 -18 -33 -14 -70 -26 -83 -26 -13 0 -69 19 -125 43 -90 37 -111 42 -177
41 -64 0 -89 -6 -177 -42 -55 -23 -111 -42 -123 -42 -12 0 -66 18 -119 39 -54
22 -114 43 -134 46 l-37 7 0 -70z"/>
<path d="M400 381 c0 -54 3 -71 14 -71 8 0 59 -18 115 -41 137 -55 184 -55
320 0 128 52 164 53 272 5 139 -61 201 -61 345 1 107 46 152 46 255 -1 137
-61 209 -61 348 0 100 44 148 46 228 10 160 -72 216 -74 364 -15 56 23 110 41
120 41 17 0 19 8 19 71 l0 72 -39 -7 c-21 -3 -85 -24 -141 -47 -122 -49 -139
-48 -261 7 -75 34 -93 38 -164 38 -72 0 -89 -4 -165 -39 -113 -53 -156 -53
-269 -1 -136 62 -217 59 -373 -14 -77 -36 -105 -37 -183 -4 -181 77 -232 79
-392 15 -55 -23 -111 -41 -123 -41 -12 0 -66 18 -119 39 -54 22 -114 43 -134
46 l-37 7 0 -71z"/>
</g>
</svg>
